<?xml version="1.0" encoding="UTF-8"?>
<!DOCTYPE svg PUBLIC "-//W3C//DTD SVG 1.1//EN" "http://www.w3.org/Graphics/SVG/1.1/DTD/svg11.dtd">
<!-- Creator: CorelDRAW X8 -->
<svg xmlns="http://www.w3.org/2000/svg" xml:space="preserve" width="324.555mm" height="167.569mm" version="1.1" style="shape-rendering:geometricPrecision; text-rendering:geometricPrecision; image-rendering:optimizeQuality; fill-rule:evenodd; clip-rule:evenodd"
viewBox="0 0 32456 16757"
 xmlns:xlink="http://www.w3.org/1999/xlink">
 <defs>
  <style type="text/css">
   <![CDATA[
    .fil0 {fill:#FEFEFE;fill-rule:nonzero}
   ]]>
  </style>
 </defs>
 <g id="Layer_x0020_1">
  <metadata id="CorelCorpID_0Corel-Layer"/>
  <g>
   <path class="fil0" d="M15375 14968c89,0 172,17 249,50 77,33 145,79 203,137 57,58 103,125 136,202 34,77 50,160 50,249l0 641 -638 0c-87,0 -170,-16 -248,-50 -78,-33 -146,-79 -205,-138 -59,-59 -105,-127 -138,-205 -33,-78 -50,-160 -50,-248 0,-89 17,-172 50,-249 33,-77 79,-144 138,-202 59,-58 127,-104 205,-137 78,-33 161,-50 248,-50zm-11075 -12134c811,0 1469,657 1469,1469 0,811 -658,1469 -1469,1469 -811,0 -1469,-658 -1469,-1469 0,-812 658,-1469 1469,-1469zm9154 12433l230 0 0 433 -9240 0c-79,-5 -149,-17 -210,-38l-20 0c-286,-18 -459,-127 -459,-433l9699 0 0 38zm6111 -1343l2515 0 0 -10746c-53,-187 -178,-319 -390,-384l-2125 0 -832 0 726 840c87,81 112,203 106,347l0 9943zm10714 -2840c-1025,-2114 -1787,-4048 -3514,-4549 -2006,-582 -4340,830 -4164,3903 153,1637 1370,2739 3050,3106 740,75 1446,42 2070,-260l-1124 -2211c-3498,319 -1466,-3999 48,-2062l671 1192c68,514 320,1230 735,1646l48 276c123,706 662,1360 1205,1800 555,448 1349,860 2082,815 408,-26 792,-268 975,-638 116,-239 126,-517 14,-760 -102,-220 -303,-398 -550,-423 -49,-5 -97,-4 -143,4 134,-699 -220,-1495 -919,-1739l-23 -8 -24 -4c-147,-25 -293,-54 -437,-88zm-2735 -491l0 0c-3,-9 -5,-19 -8,-28l0 -1 0 0 0 0c-3,-9 -5,-19 -7,-28l-1 -1 0 0 0 0c-2,-9 -4,-18 -7,-27l0 -1 0 -1 0 0 23 87zm-30 -115l0 0c-2,-9 -4,-19 -6,-28l0 0 0 0c-3,-9 -5,-18 -7,-27l0 -1 0 0 0 -1c-2,-9 -4,-18 -6,-27l0 0 0 0 19 84zm-24 -111l-1 -1c-1,-9 -3,-17 -5,-26l0 -1 0 0 0 0c-2,-9 -3,-18 -5,-26l0 -1 0 0 0 0c-2,-9 -3,-17 -5,-26l0 0 0 0 0 0c-1,-9 -3,-18 -4,-26l0 -1 0 0 0 0c-1,-8 -3,-17 -4,-25l0 -1 0 0 0 0 24 134zm-28 -159l0 0c-1,-9 -2,-17 -3,-25l-44 -330 271 194c741,532 1550,924 2437,1148l4 1 4 1 1 0 2 1 4 1 3 0 1 1 3 0 4 1 1 1 3 0 3 1 2 1 2 0 4 1 3 1 0 0 4 1 4 1 1 0 2 1 4 1 3 0 1 0 3 1 4 1 1 0 3 1 3 1 3 1 1 0 4 1 3 1 1 0 3 1 4 0 1 1 3 0 3 1 3 1 1 0 4 1 3 1 1 0 3 1 4 1 2 0 1 0 4 1 4 1 0 0 3 1 4 1 1 0 3 1 4 1 2 0 1 0 4 1 4 1 0 0 3 1 4 1 2 0 2 1 3 0 4 1 0 0 4 1 4 1 1 0 2 1 4 1 3 0 1 0 3 1 4 1 0 0 4 1 3 1 2 0 2 0 4 1 3 1 1 0 3 1 4 1 1 0 3 1 3 0c111,24 222,46 333,64l12 2 11 4c737,257 1045,1205 725,1886 98,-100 227,-158 371,-144 195,20 353,168 433,341 94,204 85,435 -13,636 -160,323 -497,534 -854,557 -694,43 -1457,-359 -1982,-783 -515,-417 -1037,-1043 -1154,-1713l-49 -280 48 24 56 28c-7,-5 -14,-11 -21,-16l-2 -2c-6,-4 -11,-9 -17,-13 -3,-3 -6,-5 -9,-7 -3,-3 -6,-6 -9,-8 -5,-5 -10,-9 -15,-13l-1 -1c-325,-282 -556,-776 -678,-1219l-82 -385zm2088 2078c373,-31 677,-110 952,26 587,290 -12,1084 -527,552 347,730 1549,-199 506,-715 -197,-98 -478,-91 -799,-96 -363,-5 -777,-24 -1178,-222 -546,-271 -843,-1216 -902,-1667 738,530 1557,936 2486,1171 189,47 382,88 580,121 655,228 935,1096 632,1708 -177,357 -404,473 -704,530 -13,3 -13,17 -5,25 1292,1137 1611,-294 1300,-313 66,102 52,203 22,265 -165,331 -634,-15 -389,-345 323,-362 819,153 578,650 -155,313 -470,459 -734,476 -1143,71 -2781,-1203 -2985,-2377 459,228 839,238 1167,211zm1777 1118c-30,107 -20,221 39,326 64,116 183,203 315,217 -231,165 -563,-8 -803,-183 187,-73 331,-187 449,-360zm-117 336c9,21 19,41 30,61 3,6 7,11 10,17 -29,-13 -58,-27 -87,-43 16,-11 32,-23 47,-35zm-23054 -2847c286,390 1258,896 1955,192l3389 -3424c846,-674 1840,-770 2565,-728 4508,261 3829,7553 -1224,6991 -725,-169 -1382,-430 -1874,-919l1782 -1726c2758,731 1926,-2789 624,-1965l-3489 3526c-924,936 -2081,1216 -3398,1047 -923,-252 -1642,-660 -2148,-1231l1818 -1763zm4591 -3682l0 9 -10 0 -2414 2369c-615,-727 -1203,-802 -1671,-459l-4345 4345c-426,443 -614,523 -1073,511l-3232 -62 6464 -6244c710,-686 1506,-1054 2406,-1157 559,-35 1006,9 1320,146l0 -3071c-11,-26 -21,-53 -31,-80 -166,-336 -404,-600 -745,-760l544 0c-1,-4 -2,-8 -2,-11 -118,-704 -86,-1598 315,-2214 223,-342 622,-557 1034,-534 266,16 512,144 669,361 141,197 198,460 97,687 -19,46 -44,87 -73,123 674,227 1193,927 1061,1656l-4 24 -9 23c-64,178 -122,359 -172,542 -52,188 -94,377 -129,567l0 2686 4 42 -4 -4 0 505zm-2641 -4453l9 0c119,633 404,1350 907,1763l220 181 7 -117c69,586 628,1238 1058,1561l260 195 -30 -277c-31,-286 -47,-571 -46,-855 -2,-633 76,-1261 246,-1881 3,-12 7,-24 10,-37l0 49c49,-174 104,-346 166,-517l4 -11 2 -12c139,-768 -535,-1502 -1285,-1558 135,-37 249,-120 308,-253 79,-180 28,-390 -83,-544 -132,-183 -338,-289 -561,-302 -360,-20 -709,169 -905,469 -379,583 -404,1445 -293,2111 2,11 4,23 6,35zm1399 581c210,-309 429,-535 446,-841 36,-654 -950,-523 -740,187 -465,-661 935,-1251 871,-89 -2,53 -13,106 -29,162l-16 0c-56,162 -158,338 -264,532 -175,319 -362,688 -386,1135 -2,23 -2,45 -1,68 -18,605 648,1316 1007,1587 -1,-18 -3,-36 -5,-53l5 4c-29,-275 -45,-551 -46,-828 2,-616 80,-1237 251,-1864 51,-188 111,-376 179,-565 124,-682 -493,-1353 -1175,-1390 -399,-22 -611,119 -808,351 -9,11 -21,4 -24,-7 -354,-1684 1049,-1258 912,-978 -56,-108 -151,-145 -220,-149 -369,-20 -299,559 109,508 474,-103 270,-788 -282,-823 -348,-19 -631,183 -775,404 -625,961 -321,3013 600,3769 28,-512 206,-848 391,-1120zm-98 -2097c-109,-26 -203,-91 -266,-194 -68,-113 -86,-259 -34,-381 -257,119 -270,494 -236,789 157,-127 327,-196 536,-214zm-351 -64c-13,-17 -26,-36 -38,-55 -4,-6 -7,-12 -10,-18 -3,32 -5,64 -6,97 18,-8 36,-16 54,-24zm-8024 8540l2479 -2402 0 -885 -2479 0 0 3287zm12728 6276l0 -388c0,-53 -10,-103 -30,-149 -20,-47 -48,-88 -83,-123 -35,-35 -76,-62 -122,-82 -47,-20 -97,-30 -150,-30 -53,0 -103,10 -151,30 -47,20 -89,47 -124,82 -35,35 -62,76 -82,123 -20,46 -30,96 -30,149 0,53 10,104 30,151 20,48 47,89 82,124 35,35 77,63 124,83 48,20 98,30 151,30l385 0zm1894 -1539l0 1151c0,88 -17,170 -50,248 -33,78 -79,146 -137,205 -58,59 -126,105 -203,138 -78,34 -161,50 -248,50 -88,0 -170,-16 -248,-50 -78,-33 -146,-79 -205,-138 -59,-59 -105,-127 -138,-205 -34,-78 -50,-160 -50,-248 0,-89 16,-172 50,-249 33,-77 79,-144 138,-202 59,-58 127,-104 205,-137 78,-33 160,-50 248,-50l384 0 0 -513 254 0zm-638 1539c53,0 103,-10 149,-30 47,-20 88,-48 123,-83 35,-35 62,-76 82,-124 20,-47 30,-98 30,-151l0 -384 -384 0c-53,0 -104,10 -151,30 -48,20 -89,47 -124,82 -35,35 -63,76 -83,123 -20,46 -30,96 -30,149 0,53 10,104 30,151 20,48 48,89 83,124 35,35 76,63 124,83 47,20 98,30 151,30zm2347 -1031l-667 1281 -663 -1281 284 0c27,51 57,109 92,175 34,65 68,132 102,199 34,68 68,133 101,195 34,63 62,117 84,163 29,-55 62,-119 99,-190 37,-71 73,-142 109,-212 36,-70 70,-135 100,-195 30,-60 54,-105 71,-135l288 0zm1364 834l180 180 -89 88c-60,61 -130,107 -208,139 -77,33 -159,49 -245,49 -85,0 -167,-16 -244,-49 -78,-32 -148,-78 -208,-139 -63,-63 -110,-134 -140,-212 -30,-79 -46,-159 -46,-241 0,-82 16,-161 46,-239 30,-78 77,-148 140,-211 62,-63 133,-110 212,-141 79,-31 159,-47 240,-47 82,0 162,16 241,47 79,31 150,78 212,141l89 88 -710 710c73,36 149,47 230,35 80,-12 151,-49 212,-110l88 -88zm-635 -458c-76,75 -114,167 -114,273 0,59 13,115 40,168 23,-23 57,-57 104,-104 46,-46 96,-96 148,-148 52,-52 103,-102 151,-150 48,-47 86,-84 113,-111 -73,-36 -149,-48 -230,-37 -80,12 -151,48 -212,109zm1954 -371l0 254 -128 0c-53,0 -103,10 -150,30 -46,20 -87,47 -122,82 -35,35 -63,76 -83,123 -20,46 -30,96 -30,149l0 641 -256 0 0 -641c0,-89 17,-172 50,-249 33,-77 79,-144 138,-202 59,-58 127,-104 205,-137 78,-33 161,-50 248,-50l128 0zm1125 1026l0 253 -125 0c-88,0 -170,-16 -248,-50 -78,-33 -146,-79 -205,-138 -59,-59 -105,-127 -138,-205 -33,-78 -50,-160 -50,-248l0 -1151 253 0 0 770 513 0 0 253 -513 0 0 128c0,53 10,104 30,151 20,48 48,89 83,124 35,35 76,63 124,83 47,20 98,30 151,30l125 0zm379 -1026l251 0 0 1279 -251 0 0 -1279zm1769 0l0 254 -772 0c-36,0 -67,12 -91,37 -25,24 -37,55 -37,91 0,36 12,67 37,92 24,26 55,39 91,39l513 0c53,0 103,10 149,30 47,20 87,47 123,81 35,34 62,75 82,121 20,47 30,96 30,150 0,53 -10,103 -30,149 -20,47 -47,88 -82,123 -36,35 -76,62 -123,82 -46,20 -96,30 -149,30l-770 0 0 -253 770 0c38,0 69,-13 94,-37 24,-25 37,-56 37,-94 0,-36 -13,-67 -37,-91 -25,-25 -56,-38 -94,-38l-513 0c-53,0 -103,-10 -150,-29 -46,-20 -87,-48 -121,-83 -34,-35 -61,-76 -81,-123 -20,-46 -30,-96 -30,-149 0,-53 10,-103 30,-150 20,-46 47,-87 81,-121 34,-34 75,-61 121,-81 47,-20 97,-30 150,-30l772 0zm493 0l250 0 0 1279 -250 0 0 -1279zm618 641c0,-89 16,-172 49,-249 34,-77 79,-144 137,-202 58,-58 126,-104 204,-137 78,-33 160,-50 248,-50 89,0 172,17 249,50 77,33 145,79 204,137 58,58 105,125 138,202 33,77 50,160 50,249l0 641 -254 0 0 -641c0,-53 -10,-103 -30,-149 -20,-47 -47,-88 -82,-123 -36,-35 -77,-63 -124,-83 -48,-19 -98,-29 -151,-29 -54,0 -103,10 -150,29 -46,20 -87,48 -122,83 -36,35 -63,76 -83,123 -20,46 -30,96 -30,149l0 641 -253 0 0 -641zm2287 -641c89,0 172,17 249,50 77,33 144,79 202,137 58,58 104,125 137,202 33,77 50,160 50,249l0 513c0,89 -17,172 -50,249 -33,77 -79,145 -137,204 -58,59 -125,105 -202,138 -77,33 -160,50 -249,50l-128 0 0 -254 128 0c85,0 161,-24 226,-72 66,-49 112,-111 139,-187l-365 0c-87,0 -170,-16 -248,-50 -78,-33 -146,-79 -205,-138 -59,-59 -105,-127 -138,-205 -33,-78 -50,-160 -50,-248 0,-89 17,-172 50,-249 33,-77 79,-144 138,-202 59,-58 127,-104 205,-137 78,-33 161,-50 248,-50zm-388 638c0,53 10,104 30,151 20,48 48,89 83,124 35,35 76,63 124,83 47,20 98,30 151,30l387 0 0 -388c0,-53 -10,-103 -30,-149 -20,-47 -47,-88 -82,-123 -35,-35 -77,-62 -124,-82 -48,-20 -98,-30 -151,-30 -53,0 -104,10 -151,30 -48,20 -89,47 -124,82 -35,35 -63,76 -83,123 -20,46 -30,96 -30,149z"/>
  </g>
 </g>
</svg>
